<svg width="24" height="24" viewBox="0 0 24 24" fill="none" xmlns="http://www.w3.org/2000/svg">
<rect width="24" height="24" fill="#E6E6E6"/>
<path fill-rule="evenodd" clip-rule="evenodd" d="M20.1579 2.0064C20.1667 2.00908 20.1755 2.01175 20.185 2.01251C21.1624 1.93332 22 2.69504 22 3.66672V18.6667C22 19.3792 21.5467 20.015 20.8708 20.2483L15.8641 21.9174C15.6809 21.9742 15.5117 22 15.3333 22C14.4141 22 13.6667 21.2525 13.6667 20.3333V19.5H11.1667C9.78839 19.5 8.66672 18.3783 8.66672 17V15.3333C8.66672 14.8734 9.03995 14.5 9.5 14.5C9.96005 14.5 10.3333 14.8734 10.3333 15.3333V17C10.3333 17.4591 10.7074 17.8333 11.1667 17.8333H13.6667V5.33328C13.6667 4.62085 14.1201 3.98502 14.795 3.75171L15.0492 3.66672H11.1667C10.7074 3.66672 10.3333 4.04086 10.3333 4.5V5.33328C10.3333 5.79333 9.96005 6.16672 9.5 6.16672C9.03995 6.16672 8.66672 5.79333 8.66672 5.33328V4.5C8.66672 3.12167 9.78839 2 11.1667 2H20.125C20.1368 2 20.1474 2.00321 20.1579 2.0064ZM7.58914 6.41086L10.9224 9.74414C11.2484 10.0701 11.2484 10.5966 10.9224 10.9224L7.58914 14.2559C7.3508 14.4942 6.99252 14.5658 6.68079 14.4367C6.36996 14.3074 6.16672 14.0033 6.16672 13.6667V11.1667H2.83328C2.37338 11.1667 2 10.7933 2 10.3333C2 9.87338 2.37338 9.5 2.83328 9.5H6.16672V7C6.16672 6.66339 6.36996 6.35913 6.68079 6.23004C6.99252 6.1008 7.3508 6.17252 7.58914 6.41086Z" fill="white"/>
</svg>
