<svg width="24" height="24" viewBox="0 0 24 24" fill="none" xmlns="http://www.w3.org/2000/svg">
<rect width="24" height="24" fill="#E6E6E6"/>
<path fill-rule="evenodd" clip-rule="evenodd" d="M5.57797 2H18.422C20.3949 2 22 3.60508 22 5.57797V18.422C22 20.3949 20.3949 22 18.4221 22H5.57797C3.60508 22 2 20.3949 2 18.4221V5.57797C2 3.60508 3.60508 2 5.57797 2ZM18.422 20.8281C19.7488 20.8281 20.8281 19.7488 20.8281 18.422V5.57797C20.8281 4.25125 19.7488 3.17188 18.4221 3.17188H5.57797C4.25125 3.17188 3.17188 4.25125 3.17188 5.57797V18.422C3.17188 19.7488 4.25125 20.8281 5.57797 20.8281H18.422ZM9.97937 6.39324H18.9036C19.2273 6.39324 19.4896 6.65559 19.4896 6.97918C19.4896 7.30277 19.2273 7.56512 18.9037 7.56512H9.97941C9.73406 8.29383 9.0448 8.82031 8.23441 8.82031C7.42402 8.82031 6.73477 8.29383 6.48941 7.56512H5.09637C4.77277 7.56512 4.51043 7.30277 4.51043 6.97918C4.51043 6.65559 4.77277 6.39324 5.09637 6.39324H6.48938C6.73473 5.66453 7.42398 5.13805 8.23438 5.13805C9.04477 5.13805 9.73402 5.66453 9.97937 6.39324ZM18.9036 11.4141H17.5106C17.2652 10.6854 16.5759 10.1589 15.7656 10.1589C14.9552 10.1589 14.266 10.6854 14.0206 11.4141H5.09637C4.77277 11.4141 4.51043 11.6764 4.51043 12C4.51043 12.3236 4.77277 12.5859 5.09637 12.5859H14.0206C14.266 13.3146 14.9553 13.8411 15.7656 13.8411C16.576 13.8411 17.2653 13.3146 17.5106 12.5859H18.9037C19.2273 12.5859 19.4896 12.3236 19.4896 12C19.4896 11.6764 19.2273 11.4141 18.9036 11.4141ZM12.4898 16.4349H18.9036C19.2273 16.4349 19.4896 16.6972 19.4896 17.0208C19.4896 17.3444 19.2273 17.6068 18.9037 17.6068H12.4898C12.2445 18.3355 11.5552 18.862 10.7448 18.862C9.93441 18.862 9.24516 18.3355 8.9998 17.6068H5.09637C4.77277 17.6068 4.51043 17.3444 4.51043 17.0208C4.51043 16.6972 4.77277 16.4349 5.09637 16.4349H8.9998C9.24516 15.7062 9.93441 15.1797 10.7448 15.1797C11.5552 15.1797 12.2445 15.7062 12.4898 16.4349Z" fill="white"/>
</svg>
